<?xml version="1.0" encoding="UTF-8" standalone="no"?>
<!DOCTYPE svg PUBLIC "-//W3C//DTD SVG 1.1//EN"
 "http://www.w3.org/Graphics/SVG/1.1/DTD/svg11.dtd">
<!-- Generated by graphviz version 2.36.0 (20140111.2315)
 -->
<!-- Title: finite_state_machine Pages: 1 -->
<svg width="376pt" height="165pt"
 viewBox="0.00 0.00 376.00 164.74" xmlns="http://www.w3.org/2000/svg" xmlns:xlink="http://www.w3.org/1999/xlink">
<g id="graph0" class="graph" transform="scale(1 1) rotate(0) translate(4 160.739)">
<title>finite_state_machine</title>
<polygon fill="white" stroke="none" points="-4,4 -4,-160.739 372,-160.739 372,4 -4,4"/>
<!-- f -->
<g id="node1" class="node"><title>f</title>
<ellipse fill="none" stroke="black" cx="344" cy="-101.739" rx="19.8654" ry="19.8654"/>
<ellipse fill="none" stroke="black" cx="344" cy="-101.739" rx="23.8993" ry="23.8993"/>
<text text-anchor="middle" x="344" y="-98.6393" font-family="Times,serif" font-size="12.00">{f}</text>
</g>
<!-- q2f -->
<g id="node2" class="node"><title>q2f</title>
<ellipse fill="none" stroke="black" cx="152" cy="-127.739" rx="25.8158" ry="25.8158"/>
<ellipse fill="none" stroke="black" cx="152" cy="-127.739" rx="29.8027" ry="29.8027"/>
<text text-anchor="middle" x="152" y="-125.239" font-family="Times,serif" font-size="10.00">{q2, f}</text>
</g>
<!-- q2f&#45;&gt;f -->
<g id="edge6" class="edge"><title>q2f&#45;&gt;f</title>
<path fill="none" stroke="black" d="M181.857,-123.79C216.439,-119.058 274.234,-111.149 310.398,-106.201"/>
<polygon fill="black" stroke="black" points="310.999,-109.651 320.432,-104.828 310.05,-102.716 310.999,-109.651"/>
<text text-anchor="middle" x="251" y="-121.539" font-family="Times,serif" font-size="14.00">b</text>
</g>
<!-- q2 -->
<g id="node5" class="node"><title>q2</title>
<ellipse fill="none" stroke="black" cx="251" cy="-38.7393" rx="25.4804" ry="25.4804"/>
<text text-anchor="middle" x="251" y="-35.6393" font-family="Times,serif" font-size="12.00">{q2}</text>
</g>
<!-- q2f&#45;&gt;q2 -->
<g id="edge7" class="edge"><title>q2f&#45;&gt;q2</title>
<path fill="none" stroke="black" d="M174.527,-107.987C189.167,-94.5556 208.613,-76.7132 224.099,-62.5038"/>
<polygon fill="black" stroke="black" points="226.788,-64.7865 231.791,-55.4469 222.056,-59.6287 226.788,-64.7865"/>
<text text-anchor="middle" x="204" y="-86.5393" font-family="Times,serif" font-size="14.00">c</text>
</g>
<!-- S -->
<g id="node3" class="node"><title>S</title>
<ellipse fill="none" stroke="black" cx="60" cy="-54.7393" rx="18" ry="18"/>
<text text-anchor="middle" x="60" y="-51.0393" font-family="Times,serif" font-size="14.00">S</text>
</g>
<!-- S&#45;&gt;q2f -->
<g id="edge3" class="edge"><title>S&#45;&gt;q2f</title>
<path fill="none" stroke="black" d="M74.6691,-65.8264C86.8128,-75.6764 105,-90.428 120.575,-103.061"/>
<polygon fill="black" stroke="black" points="118.465,-105.856 128.436,-109.438 122.875,-100.42 118.465,-105.856"/>
<text text-anchor="middle" x="100" y="-92.5393" font-family="Times,serif" font-size="14.00">b</text>
</g>
<!-- q1 -->
<g id="node4" class="node"><title>q1</title>
<ellipse fill="none" stroke="black" cx="152" cy="-54.7393" rx="25.4804" ry="25.4804"/>
<text text-anchor="middle" x="152" y="-51.6393" font-family="Times,serif" font-size="12.00">{q1}</text>
</g>
<!-- S&#45;&gt;q1 -->
<g id="edge2" class="edge"><title>S&#45;&gt;q1</title>
<path fill="none" stroke="black" d="M78.3529,-54.7393C89.1547,-54.7393 103.427,-54.7393 116.459,-54.7393"/>
<polygon fill="black" stroke="black" points="116.556,-58.2394 126.556,-54.7393 116.556,-51.2394 116.556,-58.2394"/>
<text text-anchor="middle" x="100" y="-58.5393" font-family="Times,serif" font-size="14.00">a</text>
</g>
<!-- S&#45;&gt;q2 -->
<g id="edge4" class="edge"><title>S&#45;&gt;q2</title>
<path fill="none" stroke="black" d="M72.5014,-41.3702C83.7318,-29.4304 102.011,-12.7736 122,-5.73932 147.155,3.11264 156.011,0.233757 182,-5.73932 195.219,-8.77756 208.85,-14.7425 220.404,-20.7752"/>
<polygon fill="black" stroke="black" points="218.725,-23.846 229.178,-25.5733 222.084,-17.7044 218.725,-23.846"/>
<text text-anchor="middle" x="152" y="-9.53932" font-family="Times,serif" font-size="14.00">c</text>
</g>
<!-- q1&#45;&gt;q2 -->
<g id="edge5" class="edge"><title>q1&#45;&gt;q2</title>
<path fill="none" stroke="black" d="M176.978,-50.7843C188.753,-48.8419 203.145,-46.4679 216.031,-44.3425"/>
<polygon fill="black" stroke="black" points="216.665,-47.7852 225.962,-42.7043 215.526,-40.8786 216.665,-47.7852"/>
<text text-anchor="middle" x="204" y="-50.5393" font-family="Times,serif" font-size="14.00">b</text>
</g>
<!-- q2&#45;&gt;f -->
<g id="edge8" class="edge"><title>q2&#45;&gt;f</title>
<path fill="none" stroke="black" d="M272.196,-52.7211C285.031,-61.607 301.805,-73.22 315.805,-82.9121"/>
<polygon fill="black" stroke="black" points="313.889,-85.8425 324.103,-88.657 317.874,-80.0872 313.889,-85.8425"/>
<text text-anchor="middle" x="298" y="-75.5393" font-family="Times,serif" font-size="14.00">b</text>
</g>
<!-- q2&#45;&gt;q2 -->
<g id="edge9" class="edge"><title>q2&#45;&gt;q2</title>
<path fill="none" stroke="black" d="M242.478,-62.6176C241.78,-72.9192 244.621,-81.7393 251,-81.7393 255.086,-81.7393 257.721,-78.1195 258.903,-72.8094"/>
<polygon fill="black" stroke="black" points="262.409,-72.8113 259.522,-62.6176 255.422,-72.3871 262.409,-72.8113"/>
<text text-anchor="middle" x="251" y="-85.5393" font-family="Times,serif" font-size="14.00">c</text>
</g>
<!-- qi -->
<g id="node6" class="node"><title>qi</title>
<ellipse fill="black" stroke="black" cx="2" cy="-54.7393" rx="1.8" ry="1.8"/>
</g>
<!-- qi&#45;&gt;S -->
<g id="edge1" class="edge"><title>qi&#45;&gt;S</title>
<path fill="none" stroke="black" d="M3.97198,-54.7393C7.43184,-54.7393 19.5845,-54.7393 31.5919,-54.7393"/>
<polygon fill="black" stroke="black" points="31.8844,-58.2394 41.8843,-54.7393 31.8843,-51.2394 31.8844,-58.2394"/>
</g>
</g>
</svg>
