<?xml version="1.0" encoding="UTF-8" standalone="no"?>
<!DOCTYPE svg PUBLIC "-//W3C//DTD SVG 1.1//EN"
 "http://www.w3.org/Graphics/SVG/1.1/DTD/svg11.dtd">
<!-- Generated by graphviz version 2.36.0 (20140111.2315)
 -->
<!-- Title: %3 Pages: 1 -->
<svg width="80pt" height="188pt"
 viewBox="0.00 0.00 80.00 188.00" xmlns="http://www.w3.org/2000/svg" xmlns:xlink="http://www.w3.org/1999/xlink">
<g id="graph0" class="graph" transform="scale(1 1) rotate(0) translate(4 184)">
<title>%3</title>
<polygon fill="white" stroke="none" points="-4,4 -4,-184 76,-184 76,4 -4,4"/>
<!-- a -->
<g id="node1" class="node"><title>a</title>
<ellipse fill="white" stroke="black" cx="27" cy="-162" rx="27" ry="18"/>
<text text-anchor="middle" x="27" y="-158.3" font-family="Times,serif" font-size="14.00">a</text>
</g>
<!-- a&#45;&gt;a -->
<g id="edge1" class="edge"><title>a&#45;&gt;a</title>
<path fill="none" stroke="black" d="M46.895,-174.432C59.688,-177.675 72,-173.531 72,-162 72,-153.622 65.5006,-149.143 57.0395,-148.564"/>
<polygon fill="black" stroke="black" points="56.5019,-145.1 46.895,-149.568 57.191,-152.066 56.5019,-145.1"/>
</g>
<!-- b -->
<g id="node2" class="node"><title>b</title>
<ellipse fill="white" stroke="black" cx="27" cy="-90" rx="27" ry="18"/>
<text text-anchor="middle" x="27" y="-86.3" font-family="Times,serif" font-size="14.00">b</text>
</g>
<!-- a&#45;&gt;b -->
<g id="edge2" class="edge"><title>a&#45;&gt;b</title>
<path fill="none" stroke="black" d="M27,-143.697C27,-135.983 27,-126.712 27,-118.112"/>
<polygon fill="black" stroke="black" points="30.5001,-118.104 27,-108.104 23.5001,-118.104 30.5001,-118.104"/>
</g>
<!-- c -->
<g id="node3" class="node"><title>c</title>
<ellipse fill="palegreen" stroke="black" cx="27" cy="-18" rx="27" ry="18"/>
<text text-anchor="middle" x="27" y="-14.3" font-family="Times,serif" font-size="14.00">c</text>
</g>
<!-- b&#45;&gt;c -->
<g id="edge3" class="edge"><title>b&#45;&gt;c</title>
<path fill="none" stroke="black" d="M27,-71.6966C27,-63.9827 27,-54.7125 27,-46.1124"/>
<polygon fill="black" stroke="black" points="30.5001,-46.1043 27,-36.1043 23.5001,-46.1044 30.5001,-46.1043"/>
</g>
</g>
</svg>
